<svg version="1.0" preserveAspectRatio="xMidYMid meet" viewBox="44.1 74.99999820000001 298.5 158.999996184" zoomAndPan="magnify" xmlns:xlink="http://www.w3.org/1999/xlink" xmlns="http://www.w3.org/2000/svg" style="max-height: 500px" width="298.5" height="158.999996184"><defs><g/></defs><g fill-opacity="1" fill="#ffffff"><g transform="translate(164.876142, 192.211643)"><g><path d="M 2.25 -7.75 L 1.75 -6.5625 C 1.988281 -6.40625 2.109375 -6.171875 2.109375 -5.859375 C 2.109375 -5.585938 2.019531 -5.367188 1.84375 -5.203125 C 1.675781 -5.035156 1.460938 -4.953125 1.203125 -4.953125 C 0.941406 -4.953125 0.722656 -5.03125 0.546875 -5.1875 C 0.378906 -5.351562 0.296875 -5.578125 0.296875 -5.859375 C 0.296875 -6.085938 0.375 -6.328125 0.53125 -6.578125 L 1.34375 -7.75 Z M 4.28125 -7.75 L 3.78125 -6.5625 C 4.019531 -6.40625 4.140625 -6.171875 4.140625 -5.859375 C 4.140625 -5.585938 4.050781 -5.367188 3.875 -5.203125 C 3.707031 -5.035156 3.492188 -4.953125 3.234375 -4.953125 C 2.972656 -4.953125 2.753906 -5.03125 2.578125 -5.1875 C 2.410156 -5.351562 2.328125 -5.578125 2.328125 -5.859375 C 2.328125 -6.085938 2.410156 -6.328125 2.578125 -6.578125 L 3.375 -7.75 Z M 4.28125 -7.75"/></g></g></g><g fill-opacity="1" fill="#ffffff"><g transform="translate(171.407083, 192.211643)"><g><path d="M 0.765625 -7.703125 L 4.40625 -7.703125 C 5.269531 -7.703125 5.957031 -7.523438 6.46875 -7.171875 C 6.976562 -6.828125 7.234375 -6.363281 7.234375 -5.78125 C 7.234375 -5.375 7.113281 -5.015625 6.875 -4.703125 C 6.644531 -4.398438 6.328125 -4.191406 5.921875 -4.078125 C 6.398438 -3.984375 6.78125 -3.757812 7.0625 -3.40625 C 7.351562 -3.050781 7.5 -2.628906 7.5 -2.140625 C 7.5 -1.484375 7.234375 -0.960938 6.703125 -0.578125 C 6.171875 -0.191406 5.453125 0 4.546875 0 L 0.765625 0 Z M 2.71875 -6.203125 L 2.71875 -4.625 L 4.296875 -4.625 C 4.585938 -4.625 4.816406 -4.691406 4.984375 -4.828125 C 5.148438 -4.972656 5.234375 -5.171875 5.234375 -5.421875 C 5.234375 -5.660156 5.148438 -5.847656 4.984375 -5.984375 C 4.816406 -6.128906 4.585938 -6.203125 4.296875 -6.203125 Z M 2.71875 -3.21875 L 2.71875 -1.5 L 4.296875 -1.5 C 4.660156 -1.5 4.945312 -1.578125 5.15625 -1.734375 C 5.375 -1.890625 5.484375 -2.101562 5.484375 -2.375 C 5.484375 -2.632812 5.375 -2.835938 5.15625 -2.984375 C 4.945312 -3.140625 4.660156 -3.21875 4.296875 -3.21875 Z M 2.71875 -3.21875"/></g></g></g><g fill-opacity="1" fill="#ffffff"><g transform="translate(181.466535, 192.211643)"><g><path d="M 5.40625 0 L 4.265625 -2.171875 L 2.734375 -2.171875 L 2.734375 0 L 0.765625 0 L 0.765625 -7.703125 L 4.21875 -7.703125 C 5.226562 -7.703125 6.007812 -7.46875 6.5625 -7 C 7.125 -6.53125 7.40625 -5.867188 7.40625 -5.015625 C 7.40625 -3.828125 6.941406 -3.003906 6.015625 -2.546875 L 7.640625 0 Z M 2.734375 -3.703125 L 4.21875 -3.703125 C 4.632812 -3.703125 4.960938 -3.804688 5.203125 -4.015625 C 5.441406 -4.234375 5.5625 -4.546875 5.5625 -4.953125 C 5.5625 -5.347656 5.441406 -5.644531 5.203125 -5.84375 C 4.960938 -6.050781 4.632812 -6.15625 4.21875 -6.15625 L 2.734375 -6.15625 Z M 2.734375 -3.703125"/></g></g></g><g fill-opacity="1" fill="#ffffff"><g transform="translate(191.624908, 192.211643)"><g><path d="M 6.796875 -6.15625 L 2.734375 -6.15625 L 2.734375 -4.625 L 6.40625 -4.625 L 6.40625 -3.09375 L 2.734375 -3.09375 L 2.734375 -1.546875 L 6.921875 -1.546875 L 6.921875 0 L 0.765625 0 L 0.765625 -7.703125 L 6.796875 -7.703125 Z M 6.796875 -6.15625"/></g></g></g><g fill-opacity="1" fill="#ffffff"><g transform="translate(201.233682, 192.211643)"><g><path d="M 5.890625 -1.421875 L 2.515625 -1.421875 L 1.953125 0 L -0.0625 0 L 3.265625 -7.703125 L 5.28125 -7.703125 L 8.53125 0 L 6.4375 0 Z M 5.3125 -2.90625 L 4.21875 -5.75 L 3.09375 -2.90625 Z M 5.3125 -2.90625"/></g></g></g><g fill-opacity="1" fill="#ffffff"><g transform="translate(211.897703, 192.211643)"><g><path d="M 5.78125 0 L 3.75 -3.03125 L 2.734375 -1.890625 L 2.734375 0 L 0.765625 0 L 0.765625 -7.703125 L 2.734375 -7.703125 L 2.734375 -4.359375 L 5.671875 -7.703125 L 7.9375 -7.703125 L 5.078125 -4.515625 L 8.125 0 Z M 5.78125 0"/></g></g></g><g fill-opacity="1" fill="#ffffff"><g transform="translate(222.308902, 192.211643)"><g><path d="M 2.734375 0 L 0.765625 0 L 0.765625 -7.703125 L 2.734375 -7.703125 Z M 2.734375 0"/></g></g></g><g fill-opacity="1" fill="#ffffff"><g transform="translate(228.004437, 192.211643)"><g><path d="M 7.875 0 L 6.15625 0 L 2.609375 -4.734375 L 2.609375 0 L 0.765625 0 L 0.765625 -7.703125 L 2.5 -7.703125 L 6.046875 -2.953125 L 6.046875 -7.703125 L 7.875 -7.703125 Z M 7.875 0"/></g></g></g><g fill-opacity="1" fill="#ffffff"><g transform="translate(238.844332, 192.211643)"><g><path d="M 5.890625 -3.921875 L 7.578125 -3.921875 L 7.578125 -0.90625 C 7.160156 -0.613281 6.65625 -0.375 6.0625 -0.1875 C 5.476562 0 4.914062 0.09375 4.375 0.09375 C 3.207031 0.09375 2.226562 -0.28125 1.4375 -1.03125 C 0.65625 -1.789062 0.265625 -2.726562 0.265625 -3.84375 C 0.265625 -4.957031 0.664062 -5.890625 1.46875 -6.640625 C 2.28125 -7.390625 3.296875 -7.765625 4.515625 -7.765625 C 5.085938 -7.765625 5.65625 -7.660156 6.21875 -7.453125 C 6.78125 -7.253906 7.257812 -6.976562 7.65625 -6.625 L 6.5625 -5.296875 C 6.28125 -5.546875 5.953125 -5.742188 5.578125 -5.890625 C 5.210938 -6.046875 4.851562 -6.125 4.5 -6.125 C 3.863281 -6.125 3.332031 -5.90625 2.90625 -5.46875 C 2.476562 -5.03125 2.265625 -4.488281 2.265625 -3.84375 C 2.265625 -3.195312 2.476562 -2.648438 2.90625 -2.203125 C 3.34375 -1.765625 3.878906 -1.546875 4.515625 -1.546875 C 4.929688 -1.546875 5.390625 -1.671875 5.890625 -1.921875 Z M 5.890625 -3.921875"/></g></g></g><g fill-opacity="1" fill="#ffffff"><g transform="translate(249.211563, 192.211643)"><g/></g></g><g fill-opacity="1" fill="#ffffff"><g transform="translate(253.96177, 192.211643)"><g><path d="M 0.765625 -7.703125 L 4.40625 -7.703125 C 5.269531 -7.703125 5.957031 -7.523438 6.46875 -7.171875 C 6.976562 -6.828125 7.234375 -6.363281 7.234375 -5.78125 C 7.234375 -5.375 7.113281 -5.015625 6.875 -4.703125 C 6.644531 -4.398438 6.328125 -4.191406 5.921875 -4.078125 C 6.398438 -3.984375 6.78125 -3.757812 7.0625 -3.40625 C 7.351562 -3.050781 7.5 -2.628906 7.5 -2.140625 C 7.5 -1.484375 7.234375 -0.960938 6.703125 -0.578125 C 6.171875 -0.191406 5.453125 0 4.546875 0 L 0.765625 0 Z M 2.71875 -6.203125 L 2.71875 -4.625 L 4.296875 -4.625 C 4.585938 -4.625 4.816406 -4.691406 4.984375 -4.828125 C 5.148438 -4.972656 5.234375 -5.171875 5.234375 -5.421875 C 5.234375 -5.660156 5.148438 -5.847656 4.984375 -5.984375 C 4.816406 -6.128906 4.585938 -6.203125 4.296875 -6.203125 Z M 2.71875 -3.21875 L 2.71875 -1.5 L 4.296875 -1.5 C 4.660156 -1.5 4.945312 -1.578125 5.15625 -1.734375 C 5.375 -1.890625 5.484375 -2.101562 5.484375 -2.375 C 5.484375 -2.632812 5.375 -2.835938 5.15625 -2.984375 C 4.945312 -3.140625 4.660156 -3.21875 4.296875 -3.21875 Z M 2.71875 -3.21875"/></g></g></g><g fill-opacity="1" fill="#ffffff"><g transform="translate(264.021224, 192.211643)"><g><path d="M 5.890625 -1.421875 L 2.515625 -1.421875 L 1.953125 0 L -0.0625 0 L 3.265625 -7.703125 L 5.28125 -7.703125 L 8.53125 0 L 6.4375 0 Z M 5.3125 -2.90625 L 4.21875 -5.75 L 3.09375 -2.90625 Z M 5.3125 -2.90625"/></g></g></g><g fill-opacity="1" fill="#ffffff"><g transform="translate(274.68524, 192.211643)"><g><path d="M 5.40625 0 L 4.265625 -2.171875 L 2.734375 -2.171875 L 2.734375 0 L 0.765625 0 L 0.765625 -7.703125 L 4.21875 -7.703125 C 5.226562 -7.703125 6.007812 -7.46875 6.5625 -7 C 7.125 -6.53125 7.40625 -5.867188 7.40625 -5.015625 C 7.40625 -3.828125 6.941406 -3.003906 6.015625 -2.546875 L 7.640625 0 Z M 2.734375 -3.703125 L 4.21875 -3.703125 C 4.632812 -3.703125 4.960938 -3.804688 5.203125 -4.015625 C 5.441406 -4.234375 5.5625 -4.546875 5.5625 -4.953125 C 5.5625 -5.347656 5.441406 -5.644531 5.203125 -5.84375 C 4.960938 -6.050781 4.632812 -6.15625 4.21875 -6.15625 L 2.734375 -6.15625 Z M 2.734375 -3.703125"/></g></g></g><g fill-opacity="1" fill="#ffffff"><g transform="translate(284.84361, 192.211643)"><g><path d="M 5.40625 0 L 4.265625 -2.171875 L 2.734375 -2.171875 L 2.734375 0 L 0.765625 0 L 0.765625 -7.703125 L 4.21875 -7.703125 C 5.226562 -7.703125 6.007812 -7.46875 6.5625 -7 C 7.125 -6.53125 7.40625 -5.867188 7.40625 -5.015625 C 7.40625 -3.828125 6.941406 -3.003906 6.015625 -2.546875 L 7.640625 0 Z M 2.734375 -3.703125 L 4.21875 -3.703125 C 4.632812 -3.703125 4.960938 -3.804688 5.203125 -4.015625 C 5.441406 -4.234375 5.5625 -4.546875 5.5625 -4.953125 C 5.5625 -5.347656 5.441406 -5.644531 5.203125 -5.84375 C 4.960938 -6.050781 4.632812 -6.15625 4.21875 -6.15625 L 2.734375 -6.15625 Z M 2.734375 -3.703125"/></g></g></g><g fill-opacity="1" fill="#ffffff"><g transform="translate(295.00198, 192.211643)"><g><path d="M 2.734375 0 L 0.765625 0 L 0.765625 -7.703125 L 2.734375 -7.703125 Z M 2.734375 0"/></g></g></g><g fill-opacity="1" fill="#ffffff"><g transform="translate(300.69751, 192.211643)"><g><path d="M 6.796875 -6.15625 L 2.734375 -6.15625 L 2.734375 -4.625 L 6.40625 -4.625 L 6.40625 -3.09375 L 2.734375 -3.09375 L 2.734375 -1.546875 L 6.921875 -1.546875 L 6.921875 0 L 0.765625 0 L 0.765625 -7.703125 L 6.796875 -7.703125 Z M 6.796875 -6.15625"/></g></g></g><g fill-opacity="1" fill="#ffffff"><g transform="translate(310.306278, 192.211643)"><g><path d="M 5.40625 0 L 4.265625 -2.171875 L 2.734375 -2.171875 L 2.734375 0 L 0.765625 0 L 0.765625 -7.703125 L 4.21875 -7.703125 C 5.226562 -7.703125 6.007812 -7.46875 6.5625 -7 C 7.125 -6.53125 7.40625 -5.867188 7.40625 -5.015625 C 7.40625 -3.828125 6.941406 -3.003906 6.015625 -2.546875 L 7.640625 0 Z M 2.734375 -3.703125 L 4.21875 -3.703125 C 4.632812 -3.703125 4.960938 -3.804688 5.203125 -4.015625 C 5.441406 -4.234375 5.5625 -4.546875 5.5625 -4.953125 C 5.5625 -5.347656 5.441406 -5.644531 5.203125 -5.84375 C 4.960938 -6.050781 4.632812 -6.15625 4.21875 -6.15625 L 2.734375 -6.15625 Z M 2.734375 -3.703125"/></g></g></g><g fill-opacity="1" fill="#ffffff"><g transform="translate(188.512859, 207.211642)"><g><path d="M 3.734375 -7.78125 C 4.878906 -7.78125 5.890625 -7.5 6.765625 -6.9375 L 6.03125 -5.40625 C 5.625 -5.632812 5.1875 -5.820312 4.71875 -5.96875 C 4.257812 -6.125 3.875 -6.203125 3.5625 -6.203125 C 3 -6.203125 2.71875 -6.015625 2.71875 -5.640625 C 2.71875 -5.398438 2.851562 -5.207031 3.125 -5.0625 C 3.40625 -4.914062 3.742188 -4.785156 4.140625 -4.671875 C 4.546875 -4.566406 4.945312 -4.4375 5.34375 -4.28125 C 5.75 -4.132812 6.085938 -3.894531 6.359375 -3.5625 C 6.640625 -3.226562 6.78125 -2.800781 6.78125 -2.28125 C 6.78125 -1.539062 6.488281 -0.960938 5.90625 -0.546875 C 5.332031 -0.140625 4.597656 0.0625 3.703125 0.0625 C 3.066406 0.0625 2.4375 -0.046875 1.8125 -0.265625 C 1.1875 -0.484375 0.644531 -0.785156 0.1875 -1.171875 L 0.953125 -2.671875 C 1.335938 -2.335938 1.789062 -2.0625 2.3125 -1.84375 C 2.84375 -1.625 3.316406 -1.515625 3.734375 -1.515625 C 4.046875 -1.515625 4.289062 -1.570312 4.46875 -1.6875 C 4.644531 -1.800781 4.734375 -1.96875 4.734375 -2.1875 C 4.734375 -2.40625 4.628906 -2.582031 4.421875 -2.71875 C 4.222656 -2.863281 3.972656 -2.96875 3.671875 -3.03125 C 3.367188 -3.101562 3.039062 -3.195312 2.6875 -3.3125 C 2.34375 -3.4375 2.019531 -3.566406 1.71875 -3.703125 C 1.414062 -3.847656 1.160156 -4.070312 0.953125 -4.375 C 0.753906 -4.675781 0.65625 -5.039062 0.65625 -5.46875 C 0.65625 -6.164062 0.9375 -6.722656 1.5 -7.140625 C 2.0625 -7.566406 2.804688 -7.78125 3.734375 -7.78125 Z M 3.734375 -7.78125"/></g></g></g><g fill-opacity="1" fill="#ffffff"><g transform="translate(197.791858, 207.211642)"><g><path d="M 2.734375 0 L 0.765625 0 L 0.765625 -7.703125 L 2.734375 -7.703125 Z M 2.734375 0"/></g></g></g><g fill-opacity="1" fill="#ffffff"><g transform="translate(203.487392, 207.211642)"><g><path d="M 5.890625 -3.921875 L 7.578125 -3.921875 L 7.578125 -0.90625 C 7.160156 -0.613281 6.65625 -0.375 6.0625 -0.1875 C 5.476562 0 4.914062 0.09375 4.375 0.09375 C 3.207031 0.09375 2.226562 -0.28125 1.4375 -1.03125 C 0.65625 -1.789062 0.265625 -2.726562 0.265625 -3.84375 C 0.265625 -4.957031 0.664062 -5.890625 1.46875 -6.640625 C 2.28125 -7.390625 3.296875 -7.765625 4.515625 -7.765625 C 5.085938 -7.765625 5.65625 -7.660156 6.21875 -7.453125 C 6.78125 -7.253906 7.257812 -6.976562 7.65625 -6.625 L 6.5625 -5.296875 C 6.28125 -5.546875 5.953125 -5.742188 5.578125 -5.890625 C 5.210938 -6.046875 4.851562 -6.125 4.5 -6.125 C 3.863281 -6.125 3.332031 -5.90625 2.90625 -5.46875 C 2.476562 -5.03125 2.265625 -4.488281 2.265625 -3.84375 C 2.265625 -3.195312 2.476562 -2.648438 2.90625 -2.203125 C 3.34375 -1.765625 3.878906 -1.546875 4.515625 -1.546875 C 4.929688 -1.546875 5.390625 -1.671875 5.890625 -1.921875 Z M 5.890625 -3.921875"/></g></g></g><g fill-opacity="1" fill="#ffffff"><g transform="translate(213.85462, 207.211642)"><g><path d="M 7.875 0 L 6.15625 0 L 2.609375 -4.734375 L 2.609375 0 L 0.765625 0 L 0.765625 -7.703125 L 2.5 -7.703125 L 6.046875 -2.953125 L 6.046875 -7.703125 L 7.875 -7.703125 Z M 7.875 0"/></g></g></g><g fill-opacity="1" fill="#ffffff"><g transform="translate(224.694515, 207.211642)"><g/></g></g><g fill-opacity="1" fill="#ffffff"><g transform="translate(229.444722, 207.211642)"><g><path d="M 0.765625 -7.703125 L 4.40625 -7.703125 C 5.269531 -7.703125 5.957031 -7.523438 6.46875 -7.171875 C 6.976562 -6.828125 7.234375 -6.363281 7.234375 -5.78125 C 7.234375 -5.375 7.113281 -5.015625 6.875 -4.703125 C 6.644531 -4.398438 6.328125 -4.191406 5.921875 -4.078125 C 6.398438 -3.984375 6.78125 -3.757812 7.0625 -3.40625 C 7.351562 -3.050781 7.5 -2.628906 7.5 -2.140625 C 7.5 -1.484375 7.234375 -0.960938 6.703125 -0.578125 C 6.171875 -0.191406 5.453125 0 4.546875 0 L 0.765625 0 Z M 2.71875 -6.203125 L 2.71875 -4.625 L 4.296875 -4.625 C 4.585938 -4.625 4.816406 -4.691406 4.984375 -4.828125 C 5.148438 -4.972656 5.234375 -5.171875 5.234375 -5.421875 C 5.234375 -5.660156 5.148438 -5.847656 4.984375 -5.984375 C 4.816406 -6.128906 4.585938 -6.203125 4.296875 -6.203125 Z M 2.71875 -3.21875 L 2.71875 -1.5 L 4.296875 -1.5 C 4.660156 -1.5 4.945312 -1.578125 5.15625 -1.734375 C 5.375 -1.890625 5.484375 -2.101562 5.484375 -2.375 C 5.484375 -2.632812 5.375 -2.835938 5.15625 -2.984375 C 4.945312 -3.140625 4.660156 -3.21875 4.296875 -3.21875 Z M 2.71875 -3.21875"/></g></g></g><g fill-opacity="1" fill="#ffffff"><g transform="translate(239.504175, 207.211642)"><g><path d="M 4.734375 -2.484375 L 4.734375 0 L 2.796875 0 L 2.796875 -2.4375 L -0.0625 -7.703125 L 1.90625 -7.703125 L 3.765625 -4.34375 L 5.578125 -7.703125 L 7.53125 -7.703125 Z M 4.734375 -2.484375"/></g></g></g><g fill-opacity="1" fill="#ffffff"><g transform="translate(249.178901, 207.211642)"><g/></g></g><g fill-opacity="1" fill="#ffffff"><g transform="translate(253.929109, 207.211642)"><g><path d="M 3.734375 -7.78125 C 4.878906 -7.78125 5.890625 -7.5 6.765625 -6.9375 L 6.03125 -5.40625 C 5.625 -5.632812 5.1875 -5.820312 4.71875 -5.96875 C 4.257812 -6.125 3.875 -6.203125 3.5625 -6.203125 C 3 -6.203125 2.71875 -6.015625 2.71875 -5.640625 C 2.71875 -5.398438 2.851562 -5.207031 3.125 -5.0625 C 3.40625 -4.914062 3.742188 -4.785156 4.140625 -4.671875 C 4.546875 -4.566406 4.945312 -4.4375 5.34375 -4.28125 C 5.75 -4.132812 6.085938 -3.894531 6.359375 -3.5625 C 6.640625 -3.226562 6.78125 -2.800781 6.78125 -2.28125 C 6.78125 -1.539062 6.488281 -0.960938 5.90625 -0.546875 C 5.332031 -0.140625 4.597656 0.0625 3.703125 0.0625 C 3.066406 0.0625 2.4375 -0.046875 1.8125 -0.265625 C 1.1875 -0.484375 0.644531 -0.785156 0.1875 -1.171875 L 0.953125 -2.671875 C 1.335938 -2.335938 1.789062 -2.0625 2.3125 -1.84375 C 2.84375 -1.625 3.316406 -1.515625 3.734375 -1.515625 C 4.046875 -1.515625 4.289062 -1.570312 4.46875 -1.6875 C 4.644531 -1.800781 4.734375 -1.96875 4.734375 -2.1875 C 4.734375 -2.40625 4.628906 -2.582031 4.421875 -2.71875 C 4.222656 -2.863281 3.972656 -2.96875 3.671875 -3.03125 C 3.367188 -3.101562 3.039062 -3.195312 2.6875 -3.3125 C 2.34375 -3.4375 2.019531 -3.566406 1.71875 -3.703125 C 1.414062 -3.847656 1.160156 -4.070312 0.953125 -4.375 C 0.753906 -4.675781 0.65625 -5.039062 0.65625 -5.46875 C 0.65625 -6.164062 0.9375 -6.722656 1.5 -7.140625 C 2.0625 -7.566406 2.804688 -7.78125 3.734375 -7.78125 Z M 3.734375 -7.78125"/></g></g></g><g fill-opacity="1" fill="#ffffff"><g transform="translate(263.208109, 207.211642)"><g><path d="M 2.734375 0 L 0.765625 0 L 0.765625 -7.703125 L 2.734375 -7.703125 Z M 2.734375 0"/></g></g></g><g fill-opacity="1" fill="#ffffff"><g transform="translate(268.903645, 207.211642)"><g><path d="M 5.890625 -3.921875 L 7.578125 -3.921875 L 7.578125 -0.90625 C 7.160156 -0.613281 6.65625 -0.375 6.0625 -0.1875 C 5.476562 0 4.914062 0.09375 4.375 0.09375 C 3.207031 0.09375 2.226562 -0.28125 1.4375 -1.03125 C 0.65625 -1.789062 0.265625 -2.726562 0.265625 -3.84375 C 0.265625 -4.957031 0.664062 -5.890625 1.46875 -6.640625 C 2.28125 -7.390625 3.296875 -7.765625 4.515625 -7.765625 C 5.085938 -7.765625 5.65625 -7.660156 6.21875 -7.453125 C 6.78125 -7.253906 7.257812 -6.976562 7.65625 -6.625 L 6.5625 -5.296875 C 6.28125 -5.546875 5.953125 -5.742188 5.578125 -5.890625 C 5.210938 -6.046875 4.851562 -6.125 4.5 -6.125 C 3.863281 -6.125 3.332031 -5.90625 2.90625 -5.46875 C 2.476562 -5.03125 2.265625 -4.488281 2.265625 -3.84375 C 2.265625 -3.195312 2.476562 -2.648438 2.90625 -2.203125 C 3.34375 -1.765625 3.878906 -1.546875 4.515625 -1.546875 C 4.929688 -1.546875 5.390625 -1.671875 5.890625 -1.921875 Z M 5.890625 -3.921875"/></g></g></g><g fill-opacity="1" fill="#ffffff"><g transform="translate(279.270875, 207.211642)"><g><path d="M 7.875 0 L 6.15625 0 L 2.609375 -4.734375 L 2.609375 0 L 0.765625 0 L 0.765625 -7.703125 L 2.5 -7.703125 L 6.046875 -2.953125 L 6.046875 -7.703125 L 7.875 -7.703125 Z M 7.875 0"/></g></g></g><g fill-opacity="1" fill="#ffffff"><g transform="translate(290.110764, 207.211642)"><g><path d="M 1.34375 -7.71875 C 1.601562 -7.71875 1.816406 -7.632812 1.984375 -7.46875 C 2.160156 -7.3125 2.25 -7.09375 2.25 -6.8125 C 2.25 -6.570312 2.164062 -6.328125 2 -6.078125 L 1.203125 -4.921875 L 0.296875 -4.921875 L 0.796875 -6.09375 C 0.546875 -6.257812 0.421875 -6.5 0.421875 -6.8125 C 0.421875 -7.070312 0.507812 -7.285156 0.6875 -7.453125 C 0.863281 -7.628906 1.082031 -7.71875 1.34375 -7.71875 Z M 3.375 -7.71875 C 3.632812 -7.71875 3.847656 -7.632812 4.015625 -7.46875 C 4.191406 -7.3125 4.28125 -7.09375 4.28125 -6.8125 C 4.28125 -6.570312 4.195312 -6.328125 4.03125 -6.078125 L 3.234375 -4.921875 L 2.328125 -4.921875 L 2.828125 -6.09375 C 2.585938 -6.257812 2.46875 -6.5 2.46875 -6.8125 C 2.46875 -7.070312 2.550781 -7.285156 2.71875 -7.453125 C 2.894531 -7.628906 3.113281 -7.71875 3.375 -7.71875 Z M 3.375 -7.71875"/></g></g></g><g fill-opacity="1" fill="#ffffff"><g transform="translate(48.328126, 178.711738)"><g><path d="M 9.9375 -61.890625 C 9.9375 -66.203125 10.972656 -69.78125 13.046875 -72.625 C 15.128906 -75.476562 17.84375 -77.691406 21.1875 -79.265625 C 24.539062 -80.847656 28.21875 -81.8125 32.21875 -82.15625 C 36.21875 -82.5 40.179688 -82.285156 44.109375 -81.515625 C 48.035156 -80.742188 51.59375 -79.472656 54.78125 -77.703125 C 57.976562 -75.929688 60.382812 -73.703125 62 -71.015625 L 62 -58.890625 C 59.082031 -64.816406 55.695312 -69.429688 51.84375 -72.734375 C 48 -76.046875 44.035156 -78.300781 39.953125 -79.5 C 35.867188 -80.695312 31.976562 -81.023438 28.28125 -80.484375 C 24.59375 -79.941406 21.398438 -78.75 18.703125 -76.90625 C 16.472656 -75.4375 14.953125 -73.585938 14.140625 -71.359375 C 13.335938 -69.128906 13.570312 -66.609375 14.84375 -63.796875 C 16.113281 -60.984375 18.671875 -58 22.515625 -54.84375 C 26.367188 -51.6875 31.796875 -48.453125 38.796875 -45.140625 C 43.023438 -43.378906 47.003906 -41.378906 50.734375 -39.140625 C 54.472656 -36.910156 57.515625 -34.21875 59.859375 -31.0625 C 62.210938 -27.90625 63.390625 -24.054688 63.390625 -19.515625 C 63.390625 -16.429688 62.789062 -13.675781 61.59375 -11.25 C 60.40625 -8.832031 58.769531 -6.773438 56.6875 -5.078125 C 53.382812 -2.535156 49.421875 -0.914062 44.796875 -0.21875 C 40.179688 0.46875 35.351562 0.3125 30.3125 -0.6875 C 25.269531 -1.6875 20.4375 -3.515625 15.8125 -6.171875 C 11.195312 -8.828125 7.273438 -12.234375 4.046875 -16.390625 L 4.046875 -32.453125 C 6.890625 -25.285156 10.46875 -19.316406 14.78125 -14.546875 C 19.09375 -9.773438 23.726562 -6.234375 28.6875 -3.921875 C 33.65625 -1.617188 38.503906 -0.617188 43.234375 -0.921875 C 47.972656 -1.234375 52.148438 -2.925781 55.765625 -6 C 57.691406 -7.613281 58.90625 -9.519531 59.40625 -11.71875 C 59.90625 -13.914062 59.441406 -16.359375 58.015625 -19.046875 C 56.597656 -21.742188 53.984375 -24.570312 50.171875 -27.53125 C 46.359375 -30.5 41.101562 -33.523438 34.40625 -36.609375 C 30.25 -38.453125 26.300781 -40.488281 22.5625 -42.71875 C 18.832031 -44.957031 15.796875 -47.613281 13.453125 -50.6875 C 11.109375 -53.769531 9.9375 -57.503906 9.9375 -61.890625 Z M 9.9375 -61.890625"/></g></g></g><g fill-opacity="1" fill="#ff3131"><g transform="translate(71.187355, 215.624986)"><g><path d="M 9.9375 -61.890625 C 9.9375 -66.203125 10.972656 -69.78125 13.046875 -72.625 C 15.128906 -75.476562 17.84375 -77.691406 21.1875 -79.265625 C 24.539062 -80.847656 28.21875 -81.8125 32.21875 -82.15625 C 36.21875 -82.5 40.179688 -82.285156 44.109375 -81.515625 C 48.035156 -80.742188 51.59375 -79.472656 54.78125 -77.703125 C 57.976562 -75.929688 60.382812 -73.703125 62 -71.015625 L 62 -58.890625 C 59.082031 -64.816406 55.695312 -69.429688 51.84375 -72.734375 C 48 -76.046875 44.035156 -78.300781 39.953125 -79.5 C 35.867188 -80.695312 31.976562 -81.023438 28.28125 -80.484375 C 24.59375 -79.941406 21.398438 -78.75 18.703125 -76.90625 C 16.472656 -75.4375 14.953125 -73.585938 14.140625 -71.359375 C 13.335938 -69.128906 13.570312 -66.609375 14.84375 -63.796875 C 16.113281 -60.984375 18.671875 -58 22.515625 -54.84375 C 26.367188 -51.6875 31.796875 -48.453125 38.796875 -45.140625 C 43.023438 -43.378906 47.003906 -41.378906 50.734375 -39.140625 C 54.472656 -36.910156 57.515625 -34.21875 59.859375 -31.0625 C 62.210938 -27.90625 63.390625 -24.054688 63.390625 -19.515625 C 63.390625 -16.429688 62.789062 -13.675781 61.59375 -11.25 C 60.40625 -8.832031 58.769531 -6.773438 56.6875 -5.078125 C 53.382812 -2.535156 49.421875 -0.914062 44.796875 -0.21875 C 40.179688 0.46875 35.351562 0.3125 30.3125 -0.6875 C 25.269531 -1.6875 20.4375 -3.515625 15.8125 -6.171875 C 11.195312 -8.828125 7.273438 -12.234375 4.046875 -16.390625 L 4.046875 -32.453125 C 6.890625 -25.285156 10.46875 -19.316406 14.78125 -14.546875 C 19.09375 -9.773438 23.726562 -6.234375 28.6875 -3.921875 C 33.65625 -1.617188 38.503906 -0.617188 43.234375 -0.921875 C 47.972656 -1.234375 52.148438 -2.925781 55.765625 -6 C 57.691406 -7.613281 58.90625 -9.519531 59.40625 -11.71875 C 59.90625 -13.914062 59.441406 -16.359375 58.015625 -19.046875 C 56.597656 -21.742188 53.984375 -24.570312 50.171875 -27.53125 C 46.359375 -30.5 41.101562 -33.523438 34.40625 -36.609375 C 30.25 -38.453125 26.300781 -40.488281 22.5625 -42.71875 C 18.832031 -44.957031 15.796875 -47.613281 13.453125 -50.6875 C 11.109375 -53.769531 9.9375 -57.503906 9.9375 -61.890625 Z M 9.9375 -61.890625"/></g></g></g><g fill-opacity="1" fill="#ffffff"><g transform="translate(140.13417, 157.336732)"><g><path d="M 26.578125 -6.234375 C 26.671875 -6.109375 26.703125 -5.972656 26.671875 -5.828125 C 26.640625 -5.691406 26.5625 -5.582031 26.4375 -5.5 C 23.625 -3.476562 21.0625 -1.570312 18.75 0.21875 C 18.976562 0.957031 19.003906 1.773438 18.828125 2.671875 C 18.535156 4.210938 18.007812 5.648438 17.25 6.984375 C 16.5 8.316406 15.617188 9.53125 14.609375 10.625 C 13.609375 11.71875 12.5625 12.660156 11.46875 13.453125 C 10.375 14.242188 9.328125 14.859375 8.328125 15.296875 C 7.328125 15.742188 6.460938 15.992188 5.734375 16.046875 C 5.628906 16.066406 5.53125 16.078125 5.4375 16.078125 C 4.875 16.078125 4.472656 15.960938 4.234375 15.734375 C 4.003906 15.503906 3.851562 15.289062 3.78125 15.09375 C 3.363281 13.957031 4.335938 12.078125 6.703125 9.453125 C 9.066406 6.828125 12.65625 3.640625 17.46875 -0.109375 C 16.863281 -1.179688 15.660156 -2.171875 13.859375 -3.078125 C 12.054688 -3.984375 9.664062 -5.035156 6.6875 -6.234375 C 6.34375 -6.378906 5.988281 -6.519531 5.625 -6.65625 C 5.269531 -6.800781 4.898438 -6.957031 4.515625 -7.125 C 3.210938 -7.664062 2.304688 -8.398438 1.796875 -9.328125 C 1.285156 -10.253906 1.222656 -11.316406 1.609375 -12.515625 C 1.898438 -13.441406 2.40625 -14.382812 3.125 -15.34375 C 3.851562 -16.300781 4.734375 -17.253906 5.765625 -18.203125 C 6.796875 -19.160156 7.921875 -20.066406 9.140625 -20.921875 C 10.359375 -21.785156 11.597656 -22.570312 12.859375 -23.28125 C 14.128906 -23.988281 15.375 -24.585938 16.59375 -25.078125 C 17.8125 -25.566406 18.929688 -25.910156 19.953125 -26.109375 C 20.972656 -26.316406 21.835938 -26.335938 22.546875 -26.171875 C 22.835938 -26.097656 23.160156 -25.960938 23.515625 -25.765625 C 23.867188 -25.566406 24.148438 -25.242188 24.359375 -24.796875 C 24.566406 -24.347656 24.625 -23.734375 24.53125 -22.953125 C 24.5 -22.804688 24.425781 -22.691406 24.3125 -22.609375 C 24.207031 -22.535156 24.082031 -22.507812 23.9375 -22.53125 C 23.789062 -22.539062 23.671875 -22.601562 23.578125 -22.71875 C 23.492188 -22.84375 23.457031 -22.976562 23.46875 -23.125 C 23.582031 -23.882812 23.503906 -24.390625 23.234375 -24.640625 C 22.960938 -24.898438 22.660156 -25.066406 22.328125 -25.140625 C 21.640625 -25.296875 20.726562 -25.238281 19.59375 -24.96875 C 18.46875 -24.695312 17.203125 -24.238281 15.796875 -23.59375 C 14.398438 -22.957031 12.96875 -22.164062 11.5 -21.21875 C 9.945312 -20.238281 8.546875 -19.21875 7.296875 -18.15625 C 6.054688 -17.09375 5.03125 -16.050781 4.21875 -15.03125 C 3.414062 -14.019531 2.878906 -13.082031 2.609375 -12.21875 C 2.015625 -10.34375 2.785156 -8.960938 4.921875 -8.078125 C 5.304688 -7.929688 5.675781 -7.785156 6.03125 -7.640625 C 6.382812 -7.492188 6.738281 -7.347656 7.09375 -7.203125 C 8.925781 -6.460938 10.59375 -5.757812 12.09375 -5.09375 C 13.59375 -4.4375 14.867188 -3.765625 15.921875 -3.078125 C 16.984375 -2.390625 17.78125 -1.617188 18.3125 -0.765625 C 20.59375 -2.535156 23.101562 -4.394531 25.84375 -6.34375 C 25.96875 -6.425781 26.097656 -6.453125 26.234375 -6.421875 C 26.367188 -6.398438 26.484375 -6.335938 26.578125 -6.234375 Z M 17.8125 2.453125 C 17.925781 1.898438 17.9375 1.390625 17.84375 0.921875 C 13.976562 3.953125 10.914062 6.617188 8.65625 8.921875 C 7.332031 10.285156 6.316406 11.492188 5.609375 12.546875 C 4.898438 13.609375 4.617188 14.34375 4.765625 14.75 C 4.816406 14.894531 4.941406 14.976562 5.140625 15 C 5.335938 15.03125 5.507812 15.035156 5.65625 15.015625 C 6.257812 14.984375 7.015625 14.753906 7.921875 14.328125 C 8.828125 13.910156 9.785156 13.332031 10.796875 12.59375 C 11.816406 11.863281 12.804688 10.988281 13.765625 9.96875 C 14.722656 8.957031 15.5625 7.816406 16.28125 6.546875 C 17.007812 5.285156 17.519531 3.921875 17.8125 2.453125 Z M 17.8125 2.453125"/></g></g></g><g fill-opacity="1" fill="#ffffff"><g transform="translate(166.653812, 157.336732)"><g><path d="M 7.96875 -6.203125 C 8.09375 -6.128906 8.171875 -6.019531 8.203125 -5.875 C 8.234375 -5.726562 8.210938 -5.59375 8.140625 -5.46875 C 7.785156 -4.925781 7.347656 -4.316406 6.828125 -3.640625 C 6.304688 -2.972656 5.734375 -2.332031 5.109375 -1.71875 C 4.492188 -1.113281 3.878906 -0.613281 3.265625 -0.21875 C 2.660156 0.175781 2.109375 0.375 1.609375 0.375 C 1.390625 0.375 1.195312 0.335938 1.03125 0.265625 C 0.414062 -0.00390625 0.078125 -0.660156 0.015625 -1.703125 C -0.046875 -2.742188 0.164062 -4.21875 0.65625 -6.125 C 0.6875 -6.269531 0.765625 -6.378906 0.890625 -6.453125 C 1.023438 -6.523438 1.15625 -6.539062 1.28125 -6.5 C 1.425781 -6.46875 1.535156 -6.382812 1.609375 -6.25 C 1.679688 -6.125 1.695312 -6 1.65625 -5.875 C 1.363281 -4.71875 1.179688 -3.796875 1.109375 -3.109375 C 1.035156 -2.429688 1.019531 -1.921875 1.0625 -1.578125 C 1.113281 -1.234375 1.1875 -1 1.28125 -0.875 C 1.375 -0.757812 1.425781 -0.703125 1.4375 -0.703125 C 1.675781 -0.597656 2.019531 -0.675781 2.46875 -0.9375 C 2.925781 -1.195312 3.4375 -1.585938 4 -2.109375 C 4.5625 -2.628906 5.128906 -3.226562 5.703125 -3.90625 C 6.273438 -4.582031 6.785156 -5.296875 7.234375 -6.046875 C 7.328125 -6.171875 7.441406 -6.242188 7.578125 -6.265625 C 7.710938 -6.296875 7.84375 -6.273438 7.96875 -6.203125 Z M 1.546875 -8.375 C 1.179688 -8.394531 0.992188 -8.5 0.984375 -8.6875 C 0.984375 -8.882812 1.066406 -9.082031 1.234375 -9.28125 C 1.410156 -9.476562 1.585938 -9.613281 1.765625 -9.6875 C 2.054688 -9.78125 2.269531 -9.757812 2.40625 -9.625 C 2.539062 -9.5 2.601562 -9.335938 2.59375 -9.140625 C 2.582031 -8.941406 2.488281 -8.757812 2.3125 -8.59375 C 2.144531 -8.425781 1.890625 -8.351562 1.546875 -8.375 Z M 1.546875 -8.375"/></g></g></g><g fill-opacity="1" fill="#ffffff"><g transform="translate(174.541992, 157.336732)"><g><path d="M 12.484375 -6.046875 C 12.554688 -5.910156 12.578125 -5.769531 12.546875 -5.625 C 12.523438 -5.476562 12.453125 -5.367188 12.328125 -5.296875 C 11.273438 -4.609375 10.078125 -3.804688 8.734375 -2.890625 C 7.390625 -1.972656 6.019531 -0.921875 4.625 0.265625 C 4.007812 3.972656 3.347656 7.15625 2.640625 9.8125 C 1.929688 12.46875 1.195312 14.660156 0.4375 16.390625 C -0.3125 18.117188 -1.046875 19.4375 -1.765625 20.34375 C -2.492188 21.25 -3.179688 21.796875 -3.828125 21.984375 C -4.035156 22.035156 -4.226562 22.0625 -4.40625 22.0625 C -4.988281 22.0625 -5.488281 21.804688 -5.90625 21.296875 C -6.269531 20.828125 -6.519531 20.179688 -6.65625 19.359375 C -6.800781 18.535156 -6.832031 17.613281 -6.75 16.59375 C -6.65625 15.789062 -6.441406 14.773438 -6.109375 13.546875 C -5.785156 12.328125 -5.207031 10.96875 -4.375 9.46875 C -3.269531 7.46875 -2.019531 5.660156 -0.625 4.046875 C 0.769531 2.429688 2.191406 0.992188 3.640625 -0.265625 C 3.765625 -1.015625 3.882812 -1.796875 4 -2.609375 C 4.125 -3.421875 4.242188 -4.253906 4.359375 -5.109375 C 4.097656 -4.734375 3.832031 -4.347656 3.5625 -3.953125 C 3.289062 -3.566406 3.019531 -3.191406 2.75 -2.828125 C 2.476562 -2.484375 2.171875 -2.160156 1.828125 -1.859375 C 1.492188 -1.566406 1.144531 -1.472656 0.78125 -1.578125 C 0.625 -1.609375 0.46875 -1.710938 0.3125 -1.890625 C 0.15625 -2.066406 0.0625 -2.363281 0.03125 -2.78125 C -0.0078125 -3.226562 0.0351562 -3.8125 0.171875 -4.53125 C 0.304688 -5.25 0.519531 -5.988281 0.8125 -6.75 C 1.101562 -7.507812 1.46875 -8.203125 1.90625 -8.828125 C 2.34375 -9.453125 2.832031 -9.898438 3.375 -10.171875 C 3.695312 -10.335938 4.085938 -10.425781 4.546875 -10.4375 C 5.015625 -10.445312 5.519531 -10.207031 6.0625 -9.71875 C 6.175781 -9.601562 6.234375 -9.476562 6.234375 -9.34375 C 6.242188 -9.207031 6.195312 -9.085938 6.09375 -8.984375 C 6 -8.867188 5.878906 -8.804688 5.734375 -8.796875 C 5.585938 -8.785156 5.460938 -8.828125 5.359375 -8.921875 C 4.703125 -9.523438 4.039062 -9.523438 3.375 -8.921875 C 2.957031 -8.535156 2.585938 -8.035156 2.265625 -7.421875 C 1.953125 -6.804688 1.695312 -6.171875 1.5 -5.515625 C 1.300781 -4.867188 1.164062 -4.273438 1.09375 -3.734375 C 1.03125 -3.203125 1.035156 -2.835938 1.109375 -2.640625 C 1.171875 -2.671875 1.269531 -2.742188 1.40625 -2.859375 C 1.539062 -2.984375 1.707031 -3.179688 1.90625 -3.453125 C 2.269531 -3.921875 2.632812 -4.425781 3 -4.96875 C 3.375 -5.519531 3.710938 -6.03125 4.015625 -6.5 C 4.328125 -6.96875 4.554688 -7.335938 4.703125 -7.609375 C 4.847656 -7.847656 5.054688 -7.921875 5.328125 -7.828125 C 5.597656 -7.753906 5.71875 -7.578125 5.6875 -7.296875 C 5.5625 -6.222656 5.429688 -5.1875 5.296875 -4.1875 C 5.160156 -3.1875 5.019531 -2.226562 4.875 -1.3125 C 6.144531 -2.34375 7.375 -3.253906 8.5625 -4.046875 C 9.75 -4.847656 10.8125 -5.554688 11.75 -6.171875 C 11.875 -6.265625 12.003906 -6.289062 12.140625 -6.25 C 12.273438 -6.21875 12.390625 -6.148438 12.484375 -6.046875 Z M -4.140625 20.96875 C -3.703125 20.84375 -3.179688 20.414062 -2.578125 19.6875 C -1.984375 18.96875 -1.34375 17.851562 -0.65625 16.34375 C 0.0195312 14.84375 0.707031 12.867188 1.40625 10.421875 C 2.101562 7.972656 2.757812 4.972656 3.375 1.421875 C 2.125 2.554688 0.910156 3.835938 -0.265625 5.265625 C -1.453125 6.691406 -2.515625 8.265625 -3.453125 9.984375 C -4.398438 11.691406 -5.039062 13.273438 -5.375 14.734375 C -5.707031 16.191406 -5.820312 17.429688 -5.71875 18.453125 C -5.625 19.484375 -5.414062 20.210938 -5.09375 20.640625 C -4.8125 20.972656 -4.492188 21.082031 -4.140625 20.96875 Z M -4.140625 20.96875"/></g></g></g><g fill-opacity="1" fill="#ffffff"><g transform="translate(186.754845, 157.336732)"><g><path d="M 10.96875 -6.0625 C 11.09375 -5.988281 11.171875 -5.882812 11.203125 -5.75 C 11.242188 -5.613281 11.226562 -5.484375 11.15625 -5.359375 C 10.300781 -3.847656 9.53125 -2.691406 8.84375 -1.890625 C 8.164062 -1.085938 7.476562 -0.726562 6.78125 -0.8125 C 5.863281 -0.925781 5.144531 -1.90625 4.625 -3.75 C 4.445312 -4.351562 4.285156 -4.785156 4.140625 -5.046875 C 4.003906 -5.304688 3.894531 -5.46875 3.8125 -5.53125 C 3.738281 -5.59375 3.679688 -5.625 3.640625 -5.625 C 3.585938 -5.644531 3.476562 -5.59375 3.3125 -5.46875 C 3.15625 -5.34375 2.921875 -5.0625 2.609375 -4.625 C 2.304688 -4.1875 1.925781 -3.507812 1.46875 -2.59375 C 1.007812 -1.675781 0.457031 -0.421875 -0.1875 1.171875 C -0.28125 1.390625 -0.4375 1.5 -0.65625 1.5 C -0.707031 1.5 -0.75 1.488281 -0.78125 1.46875 C -1.09375 1.394531 -1.234375 1.203125 -1.203125 0.890625 C -1.109375 0.148438 -0.941406 -0.707031 -0.703125 -1.6875 C -0.472656 -2.664062 -0.21875 -3.660156 0.0625 -4.671875 C 0.34375 -5.691406 0.601562 -6.601562 0.84375 -7.40625 C 0.894531 -7.582031 0.941406 -7.75 0.984375 -7.90625 C 1.035156 -8.0625 1.078125 -8.207031 1.109375 -8.34375 C 1.171875 -8.488281 1.265625 -8.59375 1.390625 -8.65625 C 1.515625 -8.726562 1.640625 -8.742188 1.765625 -8.703125 C 1.910156 -8.671875 2.019531 -8.585938 2.09375 -8.453125 C 2.164062 -8.328125 2.175781 -8.191406 2.125 -8.046875 C 2.082031 -7.898438 2.039062 -7.75 2 -7.59375 C 1.957031 -7.445312 1.90625 -7.28125 1.84375 -7.09375 C 1.71875 -6.625 1.570312 -6.109375 1.40625 -5.546875 C 1.25 -4.984375 1.085938 -4.410156 0.921875 -3.828125 C 1.535156 -4.992188 2.0625 -5.765625 2.5 -6.140625 C 2.9375 -6.523438 3.335938 -6.707031 3.703125 -6.6875 C 4.210938 -6.65625 4.609375 -6.375 4.890625 -5.84375 C 5.179688 -5.320312 5.425781 -4.71875 5.625 -4.03125 C 5.90625 -3.082031 6.160156 -2.476562 6.390625 -2.21875 C 6.628906 -1.96875 6.800781 -1.84375 6.90625 -1.84375 C 7.144531 -1.8125 7.421875 -1.941406 7.734375 -2.234375 C 8.054688 -2.535156 8.375 -2.914062 8.6875 -3.375 C 9.007812 -3.84375 9.3125 -4.300781 9.59375 -4.75 C 9.875 -5.207031 10.085938 -5.582031 10.234375 -5.875 C 10.304688 -6 10.410156 -6.078125 10.546875 -6.109375 C 10.691406 -6.148438 10.832031 -6.132812 10.96875 -6.0625 Z M 10.96875 -6.0625"/></g></g></g><g fill-opacity="1" fill="#ffffff"><g transform="translate(197.471739, 157.336732)"><g><path d="M 8.078125 -5.09375 C 8.128906 -4.957031 8.132812 -4.820312 8.09375 -4.6875 C 8.050781 -4.550781 7.960938 -4.445312 7.828125 -4.375 C 7.773438 -4.363281 7.707031 -4.351562 7.625 -4.34375 C 7.550781 -4.332031 7.359375 -4.328125 7.046875 -4.328125 C 6.734375 -4.328125 6.207031 -4.328125 5.46875 -4.328125 C 5.050781 -4.328125 4.582031 -4.328125 4.0625 -4.328125 C 3.550781 -4.328125 3.09375 -4.328125 2.6875 -4.328125 C 2.289062 -4.328125 2.039062 -4.316406 1.9375 -4.296875 C 1.914062 -4.296875 1.894531 -4.296875 1.875 -4.296875 C 1.570312 -4.296875 1.398438 -4.453125 1.359375 -4.765625 C 1.335938 -4.910156 1.375 -5.039062 1.46875 -5.15625 C 1.5625 -5.269531 1.679688 -5.335938 1.828125 -5.359375 C 1.984375 -5.378906 2.390625 -5.390625 3.046875 -5.390625 C 3.703125 -5.390625 4.519531 -5.378906 5.5 -5.359375 C 5.925781 -5.359375 6.347656 -5.359375 6.765625 -5.359375 C 7.191406 -5.359375 7.445312 -5.359375 7.53125 -5.359375 C 7.789062 -5.410156 7.972656 -5.320312 8.078125 -5.09375 Z M 8.078125 -5.09375"/></g></g></g><g fill-opacity="1" fill="#ffffff"><g transform="translate(207.971034, 157.336732)"><g><path d="M 12.109375 -6.234375 C 12.210938 -6.140625 12.273438 -6.019531 12.296875 -5.875 C 12.316406 -5.726562 12.269531 -5.601562 12.15625 -5.5 C 11.632812 -4.875 11.054688 -4.191406 10.421875 -3.453125 C 9.785156 -2.710938 9.160156 -1.988281 8.546875 -1.28125 C 7.941406 -0.570312 7.421875 0.0351562 6.984375 0.546875 C 6.554688 1.066406 6.269531 1.421875 6.125 1.609375 C 5.8125 2.003906 5.507812 2.394531 5.21875 2.78125 C 5.457031 3.832031 5.476562 4.820312 5.28125 5.75 C 5.09375 6.6875 4.773438 7.515625 4.328125 8.234375 C 3.890625 8.960938 3.425781 9.523438 2.9375 9.921875 C 2.425781 10.359375 1.953125 10.578125 1.515625 10.578125 C 1.242188 10.578125 1.019531 10.488281 0.84375 10.3125 C 0.53125 10.019531 0.425781 9.585938 0.53125 9.015625 C 0.632812 8.441406 0.863281 7.789062 1.21875 7.0625 C 1.582031 6.34375 2.019531 5.59375 2.53125 4.8125 C 3.039062 4.03125 3.554688 3.28125 4.078125 2.5625 C 3.984375 2.226562 3.851562 1.894531 3.6875 1.5625 C 3.53125 1.226562 3.34375 0.890625 3.125 0.546875 C 2.382812 -0.578125 1.753906 -1.632812 1.234375 -2.625 C 0.722656 -3.613281 0.484375 -4.515625 0.515625 -5.328125 C 0.609375 -6.835938 1.28125 -7.960938 2.53125 -8.703125 C 3.039062 -9.015625 3.578125 -9.195312 4.140625 -9.25 C 4.703125 -9.300781 5.21875 -9.21875 5.6875 -9 C 5.8125 -8.925781 5.894531 -8.820312 5.9375 -8.6875 C 5.988281 -8.550781 5.988281 -8.421875 5.9375 -8.296875 C 5.863281 -8.171875 5.753906 -8.082031 5.609375 -8.03125 C 5.472656 -7.988281 5.34375 -7.992188 5.21875 -8.046875 C 4.570312 -8.359375 3.859375 -8.28125 3.078125 -7.8125 C 2.128906 -7.25 1.628906 -6.40625 1.578125 -5.28125 C 1.535156 -4.601562 1.757812 -3.8125 2.25 -2.90625 C 2.75 -2 3.332031 -1.046875 4 -0.046875 C 4.34375 0.472656 4.625 1.003906 4.84375 1.546875 C 4.988281 1.367188 5.140625 1.171875 5.296875 0.953125 C 5.441406 0.773438 5.738281 0.425781 6.1875 -0.09375 C 6.632812 -0.625 7.15625 -1.242188 7.75 -1.953125 C 8.351562 -2.660156 8.972656 -3.382812 9.609375 -4.125 C 10.253906 -4.875 10.84375 -5.554688 11.375 -6.171875 C 11.457031 -6.285156 11.570312 -6.347656 11.71875 -6.359375 C 11.863281 -6.378906 11.992188 -6.335938 12.109375 -6.234375 Z M 3.265625 8 C 3.390625 7.800781 3.539062 7.515625 3.71875 7.140625 C 3.90625 6.765625 4.066406 6.3125 4.203125 5.78125 C 4.335938 5.25 4.378906 4.65625 4.328125 4 C 3.492188 5.175781 2.867188 6.15625 2.453125 6.9375 C 2.046875 7.71875 1.785156 8.3125 1.671875 8.71875 C 1.554688 9.125 1.515625 9.390625 1.546875 9.515625 C 1.671875 9.515625 1.894531 9.394531 2.21875 9.15625 C 2.550781 8.925781 2.898438 8.539062 3.265625 8 Z M 3.265625 8"/></g></g></g><g fill-opacity="1" fill="#ffffff"><g transform="translate(219.939087, 157.336732)"><g><path d="M 9.1875 -6.0625 C 9.320312 -5.988281 9.394531 -5.878906 9.40625 -5.734375 C 9.425781 -5.585938 9.398438 -5.460938 9.328125 -5.359375 C 8.253906 -3.867188 7.273438 -2.640625 6.390625 -1.671875 C 5.503906 -0.703125 4.617188 0.0976562 3.734375 0.734375 C 3.054688 1.203125 2.390625 1.4375 1.734375 1.4375 C 1.234375 1.4375 0.789062 1.300781 0.40625 1.03125 C 0.15625 0.851562 -0.0859375 0.53125 -0.328125 0.0625 C -0.578125 -0.394531 -0.710938 -1.0625 -0.734375 -1.9375 C -0.753906 -2.820312 -0.535156 -3.976562 -0.078125 -5.40625 C -0.078125 -5.40625 -0.078125 -5.414062 -0.078125 -5.4375 C 0.460938 -7.175781 1.097656 -8.503906 1.828125 -9.421875 C 2.566406 -10.335938 3.203125 -10.804688 3.734375 -10.828125 C 4.148438 -10.847656 4.421875 -10.664062 4.546875 -10.28125 C 4.742188 -9.757812 4.503906 -9.007812 3.828125 -8.03125 C 3.160156 -7.0625 2.175781 -6.035156 0.875 -4.953125 C 0.46875 -3.679688 0.273438 -2.6875 0.296875 -1.96875 C 0.316406 -1.25 0.414062 -0.734375 0.59375 -0.421875 C 0.78125 -0.109375 0.925781 0.09375 1.03125 0.1875 C 1.570312 0.582031 2.269531 0.472656 3.125 -0.140625 C 3.957031 -0.710938 4.800781 -1.46875 5.65625 -2.40625 C 6.507812 -3.34375 7.441406 -4.523438 8.453125 -5.953125 C 8.546875 -6.066406 8.664062 -6.132812 8.8125 -6.15625 C 8.957031 -6.1875 9.082031 -6.15625 9.1875 -6.0625 Z M 3.53125 -9.6875 C 3.332031 -9.5625 3.0625 -9.289062 2.71875 -8.875 C 2.375 -8.46875 2.019531 -7.875 1.65625 -7.09375 C 2.3125 -7.726562 2.773438 -8.269531 3.046875 -8.71875 C 3.316406 -9.164062 3.476562 -9.488281 3.53125 -9.6875 Z M 3.53125 -9.6875"/></g></g></g><g fill-opacity="1" fill="#ffffff"><g transform="translate(228.860838, 157.336732)"><g><path d="M 10.96875 -6.0625 C 11.09375 -5.988281 11.171875 -5.882812 11.203125 -5.75 C 11.242188 -5.613281 11.226562 -5.484375 11.15625 -5.359375 C 10.300781 -3.847656 9.53125 -2.691406 8.84375 -1.890625 C 8.164062 -1.085938 7.476562 -0.726562 6.78125 -0.8125 C 5.863281 -0.925781 5.144531 -1.90625 4.625 -3.75 C 4.445312 -4.351562 4.285156 -4.785156 4.140625 -5.046875 C 4.003906 -5.304688 3.894531 -5.46875 3.8125 -5.53125 C 3.738281 -5.59375 3.679688 -5.625 3.640625 -5.625 C 3.585938 -5.644531 3.476562 -5.59375 3.3125 -5.46875 C 3.15625 -5.34375 2.921875 -5.0625 2.609375 -4.625 C 2.304688 -4.1875 1.925781 -3.507812 1.46875 -2.59375 C 1.007812 -1.675781 0.457031 -0.421875 -0.1875 1.171875 C -0.28125 1.390625 -0.4375 1.5 -0.65625 1.5 C -0.707031 1.5 -0.75 1.488281 -0.78125 1.46875 C -1.09375 1.394531 -1.234375 1.203125 -1.203125 0.890625 C -1.109375 0.148438 -0.941406 -0.707031 -0.703125 -1.6875 C -0.472656 -2.664062 -0.21875 -3.660156 0.0625 -4.671875 C 0.34375 -5.691406 0.601562 -6.601562 0.84375 -7.40625 C 0.894531 -7.582031 0.941406 -7.75 0.984375 -7.90625 C 1.035156 -8.0625 1.078125 -8.207031 1.109375 -8.34375 C 1.171875 -8.488281 1.265625 -8.59375 1.390625 -8.65625 C 1.515625 -8.726562 1.640625 -8.742188 1.765625 -8.703125 C 1.910156 -8.671875 2.019531 -8.585938 2.09375 -8.453125 C 2.164062 -8.328125 2.175781 -8.191406 2.125 -8.046875 C 2.082031 -7.898438 2.039062 -7.75 2 -7.59375 C 1.957031 -7.445312 1.90625 -7.28125 1.84375 -7.09375 C 1.71875 -6.625 1.570312 -6.109375 1.40625 -5.546875 C 1.25 -4.984375 1.085938 -4.410156 0.921875 -3.828125 C 1.535156 -4.992188 2.0625 -5.765625 2.5 -6.140625 C 2.9375 -6.523438 3.335938 -6.707031 3.703125 -6.6875 C 4.210938 -6.65625 4.609375 -6.375 4.890625 -5.84375 C 5.179688 -5.320312 5.425781 -4.71875 5.625 -4.03125 C 5.90625 -3.082031 6.160156 -2.476562 6.390625 -2.21875 C 6.628906 -1.96875 6.800781 -1.84375 6.90625 -1.84375 C 7.144531 -1.8125 7.421875 -1.941406 7.734375 -2.234375 C 8.054688 -2.535156 8.375 -2.914062 8.6875 -3.375 C 9.007812 -3.84375 9.3125 -4.300781 9.59375 -4.75 C 9.875 -5.207031 10.085938 -5.582031 10.234375 -5.875 C 10.304688 -6 10.410156 -6.078125 10.546875 -6.109375 C 10.691406 -6.148438 10.832031 -6.132812 10.96875 -6.0625 Z M 10.96875 -6.0625"/></g></g></g><g fill-opacity="1" fill="#ffffff"><g transform="translate(239.577737, 157.336732)"><g><path d="M 12.109375 -6.234375 C 12.210938 -6.140625 12.273438 -6.019531 12.296875 -5.875 C 12.316406 -5.726562 12.269531 -5.601562 12.15625 -5.5 C 11.632812 -4.875 11.054688 -4.191406 10.421875 -3.453125 C 9.785156 -2.710938 9.160156 -1.988281 8.546875 -1.28125 C 7.941406 -0.570312 7.421875 0.0351562 6.984375 0.546875 C 6.554688 1.066406 6.269531 1.421875 6.125 1.609375 C 5.8125 2.003906 5.507812 2.394531 5.21875 2.78125 C 5.457031 3.832031 5.476562 4.820312 5.28125 5.75 C 5.09375 6.6875 4.773438 7.515625 4.328125 8.234375 C 3.890625 8.960938 3.425781 9.523438 2.9375 9.921875 C 2.425781 10.359375 1.953125 10.578125 1.515625 10.578125 C 1.242188 10.578125 1.019531 10.488281 0.84375 10.3125 C 0.53125 10.019531 0.425781 9.585938 0.53125 9.015625 C 0.632812 8.441406 0.863281 7.789062 1.21875 7.0625 C 1.582031 6.34375 2.019531 5.59375 2.53125 4.8125 C 3.039062 4.03125 3.554688 3.28125 4.078125 2.5625 C 3.984375 2.226562 3.851562 1.894531 3.6875 1.5625 C 3.53125 1.226562 3.34375 0.890625 3.125 0.546875 C 2.382812 -0.578125 1.753906 -1.632812 1.234375 -2.625 C 0.722656 -3.613281 0.484375 -4.515625 0.515625 -5.328125 C 0.609375 -6.835938 1.28125 -7.960938 2.53125 -8.703125 C 3.039062 -9.015625 3.578125 -9.195312 4.140625 -9.25 C 4.703125 -9.300781 5.21875 -9.21875 5.6875 -9 C 5.8125 -8.925781 5.894531 -8.820312 5.9375 -8.6875 C 5.988281 -8.550781 5.988281 -8.421875 5.9375 -8.296875 C 5.863281 -8.171875 5.753906 -8.082031 5.609375 -8.03125 C 5.472656 -7.988281 5.34375 -7.992188 5.21875 -8.046875 C 4.570312 -8.359375 3.859375 -8.28125 3.078125 -7.8125 C 2.128906 -7.25 1.628906 -6.40625 1.578125 -5.28125 C 1.535156 -4.601562 1.757812 -3.8125 2.25 -2.90625 C 2.75 -2 3.332031 -1.046875 4 -0.046875 C 4.34375 0.472656 4.625 1.003906 4.84375 1.546875 C 4.988281 1.367188 5.140625 1.171875 5.296875 0.953125 C 5.441406 0.773438 5.738281 0.425781 6.1875 -0.09375 C 6.632812 -0.625 7.15625 -1.242188 7.75 -1.953125 C 8.351562 -2.660156 8.972656 -3.382812 9.609375 -4.125 C 10.253906 -4.875 10.84375 -5.554688 11.375 -6.171875 C 11.457031 -6.285156 11.570312 -6.347656 11.71875 -6.359375 C 11.863281 -6.378906 11.992188 -6.335938 12.109375 -6.234375 Z M 3.265625 8 C 3.390625 7.800781 3.539062 7.515625 3.71875 7.140625 C 3.90625 6.765625 4.066406 6.3125 4.203125 5.78125 C 4.335938 5.25 4.378906 4.65625 4.328125 4 C 3.492188 5.175781 2.867188 6.15625 2.453125 6.9375 C 2.046875 7.71875 1.785156 8.3125 1.671875 8.71875 C 1.554688 9.125 1.515625 9.390625 1.546875 9.515625 C 1.671875 9.515625 1.894531 9.394531 2.21875 9.15625 C 2.550781 8.925781 2.898438 8.539062 3.265625 8 Z M 3.265625 8"/></g></g></g><g fill-opacity="1" fill="#ffffff"><g transform="translate(251.545796, 157.336732)"><g><path d="M 9.1875 -6.0625 C 9.320312 -5.988281 9.394531 -5.878906 9.40625 -5.734375 C 9.425781 -5.585938 9.398438 -5.460938 9.328125 -5.359375 C 8.253906 -3.867188 7.273438 -2.640625 6.390625 -1.671875 C 5.503906 -0.703125 4.617188 0.0976562 3.734375 0.734375 C 3.054688 1.203125 2.390625 1.4375 1.734375 1.4375 C 1.234375 1.4375 0.789062 1.300781 0.40625 1.03125 C 0.15625 0.851562 -0.0859375 0.53125 -0.328125 0.0625 C -0.578125 -0.394531 -0.710938 -1.0625 -0.734375 -1.9375 C -0.753906 -2.820312 -0.535156 -3.976562 -0.078125 -5.40625 C -0.078125 -5.40625 -0.078125 -5.414062 -0.078125 -5.4375 C 0.460938 -7.175781 1.097656 -8.503906 1.828125 -9.421875 C 2.566406 -10.335938 3.203125 -10.804688 3.734375 -10.828125 C 4.148438 -10.847656 4.421875 -10.664062 4.546875 -10.28125 C 4.742188 -9.757812 4.503906 -9.007812 3.828125 -8.03125 C 3.160156 -7.0625 2.175781 -6.035156 0.875 -4.953125 C 0.46875 -3.679688 0.273438 -2.6875 0.296875 -1.96875 C 0.316406 -1.25 0.414062 -0.734375 0.59375 -0.421875 C 0.78125 -0.109375 0.925781 0.09375 1.03125 0.1875 C 1.570312 0.582031 2.269531 0.472656 3.125 -0.140625 C 3.957031 -0.710938 4.800781 -1.46875 5.65625 -2.40625 C 6.507812 -3.34375 7.441406 -4.523438 8.453125 -5.953125 C 8.546875 -6.066406 8.664062 -6.132812 8.8125 -6.15625 C 8.957031 -6.1875 9.082031 -6.15625 9.1875 -6.0625 Z M 3.53125 -9.6875 C 3.332031 -9.5625 3.0625 -9.289062 2.71875 -8.875 C 2.375 -8.46875 2.019531 -7.875 1.65625 -7.09375 C 2.3125 -7.726562 2.773438 -8.269531 3.046875 -8.71875 C 3.316406 -9.164062 3.476562 -9.488281 3.53125 -9.6875 Z M 3.53125 -9.6875"/></g></g></g><g fill-opacity="1" fill="#ffffff"><g transform="translate(260.467552, 157.336732)"><g/></g></g><g fill-opacity="1" fill="#ffffff"><g transform="translate(269.824492, 157.336732)"><g><path d="M 12.109375 -6.234375 C 12.210938 -6.140625 12.273438 -6.019531 12.296875 -5.875 C 12.316406 -5.726562 12.269531 -5.601562 12.15625 -5.5 C 11.632812 -4.875 11.054688 -4.191406 10.421875 -3.453125 C 9.785156 -2.710938 9.160156 -1.988281 8.546875 -1.28125 C 7.941406 -0.570312 7.421875 0.0351562 6.984375 0.546875 C 6.554688 1.066406 6.269531 1.421875 6.125 1.609375 C 5.8125 2.003906 5.507812 2.394531 5.21875 2.78125 C 5.457031 3.832031 5.476562 4.820312 5.28125 5.75 C 5.09375 6.6875 4.773438 7.515625 4.328125 8.234375 C 3.890625 8.960938 3.425781 9.523438 2.9375 9.921875 C 2.425781 10.359375 1.953125 10.578125 1.515625 10.578125 C 1.242188 10.578125 1.019531 10.488281 0.84375 10.3125 C 0.53125 10.019531 0.425781 9.585938 0.53125 9.015625 C 0.632812 8.441406 0.863281 7.789062 1.21875 7.0625 C 1.582031 6.34375 2.019531 5.59375 2.53125 4.8125 C 3.039062 4.03125 3.554688 3.28125 4.078125 2.5625 C 3.984375 2.226562 3.851562 1.894531 3.6875 1.5625 C 3.53125 1.226562 3.34375 0.890625 3.125 0.546875 C 2.382812 -0.578125 1.753906 -1.632812 1.234375 -2.625 C 0.722656 -3.613281 0.484375 -4.515625 0.515625 -5.328125 C 0.609375 -6.835938 1.28125 -7.960938 2.53125 -8.703125 C 3.039062 -9.015625 3.578125 -9.195312 4.140625 -9.25 C 4.703125 -9.300781 5.21875 -9.21875 5.6875 -9 C 5.8125 -8.925781 5.894531 -8.820312 5.9375 -8.6875 C 5.988281 -8.550781 5.988281 -8.421875 5.9375 -8.296875 C 5.863281 -8.171875 5.753906 -8.082031 5.609375 -8.03125 C 5.472656 -7.988281 5.34375 -7.992188 5.21875 -8.046875 C 4.570312 -8.359375 3.859375 -8.28125 3.078125 -7.8125 C 2.128906 -7.25 1.628906 -6.40625 1.578125 -5.28125 C 1.535156 -4.601562 1.757812 -3.8125 2.25 -2.90625 C 2.75 -2 3.332031 -1.046875 4 -0.046875 C 4.34375 0.472656 4.625 1.003906 4.84375 1.546875 C 4.988281 1.367188 5.140625 1.171875 5.296875 0.953125 C 5.441406 0.773438 5.738281 0.425781 6.1875 -0.09375 C 6.632812 -0.625 7.15625 -1.242188 7.75 -1.953125 C 8.351562 -2.660156 8.972656 -3.382812 9.609375 -4.125 C 10.253906 -4.875 10.84375 -5.554688 11.375 -6.171875 C 11.457031 -6.285156 11.570312 -6.347656 11.71875 -6.359375 C 11.863281 -6.378906 11.992188 -6.335938 12.109375 -6.234375 Z M 3.265625 8 C 3.390625 7.800781 3.539062 7.515625 3.71875 7.140625 C 3.90625 6.765625 4.066406 6.3125 4.203125 5.78125 C 4.335938 5.25 4.378906 4.65625 4.328125 4 C 3.492188 5.175781 2.867188 6.15625 2.453125 6.9375 C 2.046875 7.71875 1.785156 8.3125 1.671875 8.71875 C 1.554688 9.125 1.515625 9.390625 1.546875 9.515625 C 1.671875 9.515625 1.894531 9.394531 2.21875 9.15625 C 2.550781 8.925781 2.898438 8.539062 3.265625 8 Z M 3.265625 8"/></g></g></g><g fill-opacity="1" fill="#ffffff"><g transform="translate(281.792551, 157.336732)"><g><path d="M 9.5 -5.90625 C 9.625 -5.851562 9.710938 -5.753906 9.765625 -5.609375 C 9.816406 -5.472656 9.804688 -5.34375 9.734375 -5.21875 C 9.578125 -4.84375 9.351562 -4.238281 9.0625 -3.40625 C 8.769531 -2.570312 8.441406 -1.59375 8.078125 -0.46875 C 7.710938 0.644531 7.328125 1.847656 6.921875 3.140625 C 6.515625 4.441406 6.101562 5.753906 5.6875 7.078125 C 5.144531 8.796875 4.601562 10.503906 4.0625 12.203125 C 3.53125 13.910156 3.035156 15.4375 2.578125 16.78125 C 2.109375 18.21875 1.726562 19.296875 1.4375 20.015625 C 1.257812 20.472656 1.085938 20.835938 0.921875 21.109375 C 0.765625 21.378906 0.566406 21.515625 0.328125 21.515625 C 0.285156 21.515625 0.238281 21.515625 0.1875 21.515625 C -0.113281 21.441406 -0.269531 21.21875 -0.28125 20.84375 C -0.289062 20.476562 -0.269531 20.050781 -0.21875 19.5625 C -0.195312 19.4375 -0.128906 19.039062 -0.015625 18.375 C 0.0859375 17.707031 0.21875 16.851562 0.375 15.8125 C 0.539062 14.769531 0.734375 13.597656 0.953125 12.296875 C 1.171875 10.992188 1.398438 9.628906 1.640625 8.203125 C 1.890625 6.773438 2.128906 5.351562 2.359375 3.9375 C 2.597656 2.53125 2.828125 1.191406 3.046875 -0.078125 C 3.265625 -1.347656 3.460938 -2.472656 3.640625 -3.453125 C 3.367188 -3.085938 3.078125 -2.710938 2.765625 -2.328125 C 2.460938 -1.953125 2.140625 -1.578125 1.796875 -1.203125 C 1.304688 -0.671875 0.890625 -0.382812 0.546875 -0.34375 C 0.210938 -0.3125 -0.0507812 -0.359375 -0.25 -0.484375 C -0.539062 -0.671875 -0.71875 -0.976562 -0.78125 -1.40625 C -0.84375 -1.832031 -0.816406 -2.3125 -0.703125 -2.84375 C -0.597656 -3.375 -0.4375 -3.894531 -0.21875 -4.40625 C 0.09375 -5.09375 0.515625 -5.734375 1.046875 -6.328125 C 1.578125 -6.929688 2.21875 -7.375 2.96875 -7.65625 C 3.726562 -7.9375 4.578125 -7.957031 5.515625 -7.71875 C 5.660156 -7.6875 5.769531 -7.609375 5.84375 -7.484375 C 5.914062 -7.367188 5.9375 -7.238281 5.90625 -7.09375 C 5.863281 -6.945312 5.785156 -6.835938 5.671875 -6.765625 C 5.554688 -6.703125 5.425781 -6.6875 5.28125 -6.71875 C 4.519531 -6.914062 3.859375 -6.898438 3.296875 -6.671875 C 2.742188 -6.453125 2.28125 -6.140625 1.90625 -5.734375 C 1.539062 -5.335938 1.257812 -4.96875 1.0625 -4.625 C 0.625 -3.882812 0.363281 -3.195312 0.28125 -2.5625 C 0.195312 -1.925781 0.210938 -1.523438 0.328125 -1.359375 C 0.359375 -1.378906 0.429688 -1.425781 0.546875 -1.5 C 0.671875 -1.570312 0.832031 -1.71875 1.03125 -1.9375 C 1.5625 -2.5 2.039062 -3.0625 2.46875 -3.625 C 2.90625 -4.195312 3.289062 -4.710938 3.625 -5.171875 C 3.726562 -5.316406 3.820312 -5.453125 3.90625 -5.578125 C 4 -5.703125 4.082031 -5.820312 4.15625 -5.9375 C 4.34375 -6.144531 4.5625 -6.1875 4.8125 -6.0625 C 5.050781 -5.957031 5.144531 -5.769531 5.09375 -5.5 C 4.957031 -4.84375 4.785156 -3.925781 4.578125 -2.75 C 4.367188 -1.582031 4.140625 -0.265625 3.890625 1.203125 C 3.640625 2.679688 3.375 4.210938 3.09375 5.796875 C 2.820312 7.390625 2.5625 8.957031 2.3125 10.5 C 2.0625 12.039062 1.832031 13.453125 1.625 14.734375 C 1.414062 16.023438 1.238281 17.085938 1.09375 17.921875 C 1.414062 17.003906 1.78125 15.914062 2.1875 14.65625 C 2.59375 13.40625 3.007812 12.097656 3.4375 10.734375 C 3.863281 9.378906 4.273438 8.0625 4.671875 6.78125 C 5.253906 4.90625 5.8125 3.125 6.34375 1.4375 C 6.882812 -0.25 7.367188 -1.71875 7.796875 -2.96875 C 8.222656 -4.21875 8.550781 -5.113281 8.78125 -5.65625 C 8.851562 -5.78125 8.957031 -5.867188 9.09375 -5.921875 C 9.226562 -5.984375 9.363281 -5.976562 9.5 -5.90625 Z M 9.5 -5.90625"/></g></g></g><g fill-opacity="1" fill="#ffffff"><g transform="translate(291.367078, 157.336732)"><g><path d="M 10.859375 -5.875 C 10.960938 -5.800781 11.03125 -5.691406 11.0625 -5.546875 C 11.101562 -5.398438 11.085938 -5.273438 11.015625 -5.171875 C 10.867188 -4.929688 10.632812 -4.566406 10.3125 -4.078125 C 10 -3.585938 9.617188 -3.046875 9.171875 -2.453125 C 8.734375 -1.867188 8.265625 -1.300781 7.765625 -0.75 C 7.265625 -0.195312 6.769531 0.257812 6.28125 0.625 C 5.789062 0.988281 5.335938 1.171875 4.921875 1.171875 C 4.773438 1.171875 4.648438 1.144531 4.546875 1.09375 C 4.085938 0.925781 3.800781 0.507812 3.6875 -0.15625 C 3.570312 -0.832031 3.613281 -1.804688 3.8125 -3.078125 C 3.570312 -2.765625 3.316406 -2.441406 3.046875 -2.109375 C 2.773438 -1.785156 2.484375 -1.488281 2.171875 -1.21875 C 1.703125 -0.820312 1.300781 -0.660156 0.96875 -0.734375 C 0.644531 -0.804688 0.429688 -0.894531 0.328125 -1 C 0.00390625 -1.28125 -0.195312 -1.695312 -0.28125 -2.25 C -0.363281 -2.800781 -0.335938 -3.414062 -0.203125 -4.09375 C -0.0664062 -4.769531 0.179688 -5.425781 0.546875 -6.0625 C 0.617188 -6.1875 0.726562 -6.265625 0.875 -6.296875 C 1.019531 -6.335938 1.15625 -6.320312 1.28125 -6.25 C 1.40625 -6.175781 1.484375 -6.070312 1.515625 -5.9375 C 1.554688 -5.800781 1.539062 -5.671875 1.46875 -5.546875 C 1.144531 -5.003906 0.925781 -4.460938 0.8125 -3.921875 C 0.707031 -3.390625 0.675781 -2.929688 0.71875 -2.546875 C 0.757812 -2.171875 0.847656 -1.929688 0.984375 -1.828125 C 1.054688 -1.765625 1.148438 -1.773438 1.265625 -1.859375 C 1.378906 -1.941406 1.457031 -1.992188 1.5 -2.015625 C 1.84375 -2.316406 2.164062 -2.664062 2.46875 -3.0625 C 2.78125 -3.46875 3.046875 -3.832031 3.265625 -4.15625 C 3.554688 -4.5625 3.796875 -4.859375 3.984375 -5.046875 C 4.171875 -5.234375 4.394531 -5.273438 4.65625 -5.171875 C 4.90625 -5.078125 5.03125 -4.875 5.03125 -4.5625 C 5.03125 -4.257812 4.984375 -3.84375 4.890625 -3.3125 C 4.710938 -2.257812 4.628906 -1.492188 4.640625 -1.015625 C 4.660156 -0.535156 4.707031 -0.226562 4.78125 -0.09375 C 4.851562 0.0390625 4.898438 0.109375 4.921875 0.109375 C 5.140625 0.203125 5.738281 -0.222656 6.71875 -1.171875 C 7.695312 -2.128906 8.832031 -3.644531 10.125 -5.71875 C 10.195312 -5.84375 10.300781 -5.914062 10.4375 -5.9375 C 10.582031 -5.96875 10.722656 -5.945312 10.859375 -5.875 Z M 10.859375 -5.875"/></g></g></g><g fill-opacity="1" fill="#ffffff"><g transform="translate(302.11118, 157.336732)"><g><path d="M 11.390625 -6.046875 C 11.523438 -5.984375 11.613281 -5.882812 11.65625 -5.75 C 11.695312 -5.613281 11.691406 -5.484375 11.640625 -5.359375 C 11.296875 -4.648438 10.921875 -3.941406 10.515625 -3.234375 C 10.109375 -2.523438 9.679688 -1.875 9.234375 -1.28125 C 8.785156 -0.695312 8.328125 -0.226562 7.859375 0.125 C 7.390625 0.476562 6.921875 0.65625 6.453125 0.65625 C 6.359375 0.65625 6.253906 0.644531 6.140625 0.625 C 4.929688 0.382812 4.179688 -1.242188 3.890625 -4.265625 C 3.578125 -3.847656 3.21875 -3.378906 2.8125 -2.859375 C 2.40625 -2.347656 1.972656 -1.835938 1.515625 -1.328125 C 1.453125 -1.253906 1.335938 -1.140625 1.171875 -0.984375 C 1.003906 -0.835938 0.8125 -0.71875 0.59375 -0.625 C 0.375 -0.53125 0.160156 -0.539062 -0.046875 -0.65625 C -0.484375 -0.8125 -0.695312 -1.28125 -0.6875 -2.0625 C -0.6875 -2.519531 -0.597656 -3.082031 -0.421875 -3.75 C -0.242188 -4.425781 0 -5.101562 0.3125 -5.78125 C 0.625 -6.457031 0.992188 -7.054688 1.421875 -7.578125 C 1.847656 -8.109375 2.328125 -8.46875 2.859375 -8.65625 C 3.179688 -8.78125 3.578125 -8.800781 4.046875 -8.71875 C 4.523438 -8.632812 5.015625 -8.296875 5.515625 -7.703125 C 5.609375 -7.585938 5.648438 -7.457031 5.640625 -7.3125 C 5.628906 -7.164062 5.570312 -7.050781 5.46875 -6.96875 C 5.351562 -6.875 5.222656 -6.832031 5.078125 -6.84375 C 4.941406 -6.851562 4.828125 -6.910156 4.734375 -7.015625 C 4.296875 -7.523438 3.914062 -7.765625 3.59375 -7.734375 C 3.28125 -7.710938 3.015625 -7.617188 2.796875 -7.453125 C 2.398438 -7.160156 2.035156 -6.742188 1.703125 -6.203125 C 1.378906 -5.660156 1.109375 -5.085938 0.890625 -4.484375 C 0.679688 -3.890625 0.53125 -3.332031 0.4375 -2.8125 C 0.34375 -2.300781 0.316406 -1.925781 0.359375 -1.6875 C 0.410156 -1.71875 0.46875 -1.757812 0.53125 -1.8125 C 0.59375 -1.875 0.660156 -1.953125 0.734375 -2.046875 C 1.273438 -2.640625 1.769531 -3.226562 2.21875 -3.8125 C 2.675781 -4.40625 3.070312 -4.929688 3.40625 -5.390625 C 3.488281 -5.515625 3.570312 -5.632812 3.65625 -5.75 C 3.738281 -5.875 3.816406 -5.976562 3.890625 -6.0625 C 4.035156 -6.25 4.226562 -6.304688 4.46875 -6.234375 C 4.695312 -6.171875 4.820312 -6.015625 4.84375 -5.765625 C 4.894531 -4.585938 4.988281 -3.640625 5.125 -2.921875 C 5.257812 -2.203125 5.410156 -1.664062 5.578125 -1.3125 C 5.742188 -0.957031 5.894531 -0.71875 6.03125 -0.59375 C 6.175781 -0.46875 6.285156 -0.40625 6.359375 -0.40625 C 6.703125 -0.332031 7.253906 -0.6875 8.015625 -1.46875 C 8.785156 -2.25 9.675781 -3.691406 10.6875 -5.796875 C 10.757812 -5.941406 10.863281 -6.035156 11 -6.078125 C 11.132812 -6.117188 11.265625 -6.109375 11.390625 -6.046875 Z M 11.390625 -6.046875"/></g></g></g><g fill-opacity="1" fill="#ffffff"><g transform="translate(313.236073, 157.336732)"><g><path d="M 11.609375 -22.71875 C 11.671875 -22.675781 11.726562 -22.585938 11.78125 -22.453125 C 11.832031 -22.316406 11.859375 -22.082031 11.859375 -21.75 C 11.859375 -21.414062 11.785156 -20.925781 11.640625 -20.28125 C 11.492188 -19.632812 11.25 -18.773438 10.90625 -17.703125 C 10.851562 -17.554688 10.800781 -17.40625 10.75 -17.25 C 10.707031 -17.101562 10.660156 -16.957031 10.609375 -16.8125 C 10.191406 -15.507812 9.679688 -14.046875 9.078125 -12.421875 C 8.484375 -10.796875 7.679688 -9.019531 6.671875 -7.09375 C 6.429688 -5.914062 6.179688 -4.660156 5.921875 -3.328125 C 5.671875 -1.992188 5.421875 -0.585938 5.171875 0.890625 C 4.835938 2.910156 4.578125 4.570312 4.390625 5.875 C 4.203125 7.175781 4.070312 8.210938 4 8.984375 C 3.925781 9.753906 3.878906 10.34375 3.859375 10.75 C 4.003906 10.6875 4.148438 10.6875 4.296875 10.75 C 4.421875 10.820312 4.503906 10.925781 4.546875 11.0625 C 4.597656 11.195312 4.597656 11.328125 4.546875 11.453125 C 4.453125 11.648438 4.320312 11.867188 4.15625 12.109375 C 4 12.359375 3.800781 12.484375 3.5625 12.484375 C 3.488281 12.484375 3.414062 12.472656 3.34375 12.453125 C 3.164062 12.398438 3.03125 12.269531 2.9375 12.0625 C 2.84375 11.851562 2.800781 11.453125 2.8125 10.859375 C 2.820312 10.273438 2.898438 9.382812 3.046875 8.1875 C 3.265625 6.300781 3.628906 3.816406 4.140625 0.734375 C 4.421875 -0.953125 4.71875 -2.59375 5.03125 -4.1875 C 4.757812 -3.75 4.472656 -3.300781 4.171875 -2.84375 C 3.878906 -2.394531 3.566406 -1.9375 3.234375 -1.46875 C 2.742188 -0.738281 2.300781 -0.226562 1.90625 0.0625 C 1.507812 0.363281 1.160156 0.523438 0.859375 0.546875 C 0.554688 0.566406 0.304688 0.519531 0.109375 0.40625 C -0.285156 0.164062 -0.535156 -0.25 -0.640625 -0.84375 C -0.753906 -1.4375 -0.742188 -2.109375 -0.609375 -2.859375 C -0.472656 -3.617188 -0.253906 -4.34375 0.046875 -5.03125 C 0.679688 -6.375 1.410156 -7.320312 2.234375 -7.875 C 3.066406 -8.425781 3.773438 -8.617188 4.359375 -8.453125 C 4.484375 -8.398438 4.679688 -8.28125 4.953125 -8.09375 C 5.222656 -7.90625 5.382812 -7.546875 5.4375 -7.015625 C 5.53125 -7.160156 5.613281 -7.304688 5.6875 -7.453125 C 6.351562 -10.566406 7.015625 -13.253906 7.671875 -15.515625 C 8.328125 -17.773438 8.9375 -19.535156 9.5 -20.796875 C 10.070312 -22.054688 10.5625 -22.75 10.96875 -22.875 C 11.21875 -22.96875 11.429688 -22.914062 11.609375 -22.71875 Z M 2.390625 -2.0625 C 2.828125 -2.695312 3.238281 -3.320312 3.625 -3.9375 C 4.019531 -4.5625 4.390625 -5.171875 4.734375 -5.765625 C 4.460938 -5.859375 4.351562 -6.039062 4.40625 -6.3125 C 4.40625 -6.4375 4.398438 -6.640625 4.390625 -6.921875 C 4.378906 -7.203125 4.265625 -7.378906 4.046875 -7.453125 C 4.015625 -7.472656 3.960938 -7.484375 3.890625 -7.484375 C 3.546875 -7.484375 3.097656 -7.242188 2.546875 -6.765625 C 1.992188 -6.296875 1.476562 -5.5625 1 -4.5625 C 0.695312 -3.914062 0.5 -3.296875 0.40625 -2.703125 C 0.3125 -2.117188 0.289062 -1.625 0.34375 -1.21875 C 0.40625 -0.820312 0.507812 -0.585938 0.65625 -0.515625 C 0.707031 -0.484375 0.878906 -0.546875 1.171875 -0.703125 C 1.460938 -0.867188 1.867188 -1.320312 2.390625 -2.0625 Z M 9.90625 -18.03125 C 10.125 -18.664062 10.289062 -19.210938 10.40625 -19.671875 C 10.519531 -20.140625 10.613281 -20.535156 10.6875 -20.859375 C 10.34375 -20.148438 9.925781 -19.078125 9.4375 -17.640625 C 8.945312 -16.210938 8.410156 -14.375 7.828125 -12.125 C 8.210938 -13.050781 8.546875 -13.929688 8.828125 -14.765625 C 9.109375 -15.597656 9.367188 -16.378906 9.609375 -17.109375 C 9.660156 -17.273438 9.707031 -17.429688 9.75 -17.578125 C 9.800781 -17.734375 9.851562 -17.882812 9.90625 -18.03125 Z M 9.90625 -18.03125"/></g></g></g></svg>